<svg id="eY7HBqiJTA41" xmlns="http://www.w3.org/2000/svg" xmlns:xlink="http://www.w3.org/1999/xlink" viewBox="0 0 260 260" shape-rendering="geometricPrecision" text-rendering="geometricPrecision" project-id="35e00cd3fd0348be80605c6ebc942281" export-id="7e7c7bfb388a4445bd2a4b3a21b45fd6" cached="false"><defs><linearGradient id="eY7HBqiJTA43-fill" x1="-72.3" y1="-99.54" x2="92.59" y2="127.47" spreadMethod="pad" gradientUnits="userSpaceOnUse" gradientTransform="translate(0 0)"><stop id="eY7HBqiJTA43-fill-0" offset="17%" stop-color="#fce8b3"/><stop id="eY7HBqiJTA43-fill-1" offset="99%" stop-color="#cfb163"/></linearGradient><linearGradient id="eY7HBqiJTA44-fill" x1="-83.91" y1="-107.53" x2="70.29" y2="90.07" spreadMethod="pad" gradientUnits="userSpaceOnUse" gradientTransform="translate(0 0)"><stop id="eY7HBqiJTA44-fill-0" offset="0%" stop-color="#e6c97c"/><stop id="eY7HBqiJTA44-fill-1" offset="100%" stop-color="#d6ac5a"/></linearGradient><linearGradient id="eY7HBqiJTA45-fill" x1="130.65" y1="111.15" x2="219.12" y2="224.53" spreadMethod="pad" gradientUnits="userSpaceOnUse" gradientTransform="translate(0 0)"><stop id="eY7HBqiJTA45-fill-0" offset="0%" stop-color="#c4a95d"/><stop id="eY7HBqiJTA45-fill-1" offset="100%" stop-color="#ad8a43"/></linearGradient><linearGradient id="eY7HBqiJTA46-fill" x1="184.26" y1="162.03" x2="235.6" y2="284.03" spreadMethod="pad" gradientUnits="userSpaceOnUse" gradientTransform="translate(0 0)"><stop id="eY7HBqiJTA46-fill-0" offset="17%" stop-color="#fce8b3"/><stop id="eY7HBqiJTA46-fill-1" offset="97%" stop-color="#e1c885"/></linearGradient></defs><g transform="matrix(.536241 0 0 0.5162 22.751804 26.760004)"><circle r="118.4" transform="translate(200 200)" fill="url(#eY7HBqiJTA43-fill)"/><circle r="80.82" transform="translate(200 200)" fill="url(#eY7HBqiJTA44-fill)"/><path d="M127.5,212.06c-.0086-34.007224,21.276957-64.379885,53.245668-75.976992s67.777061-1.93608,89.574332,24.166992c-15.061445-26.664928-43.904913-42.5216-74.489169-40.950357s-57.650911,20.300255-69.900492,48.368267-7.576005,60.649254,12.069661,84.14209c-6.887153-12.115543-10.505546-25.813744-10.5-39.75Z" fill="url(#eY7HBqiJTA45-fill)"/><path d="M193.95,239.3c-8.801413-.396026-17.455123-2.406073-25.53-5.93v-20.09c4.883224,2.475376,9.989204,4.484286,15.25,6c4.685365,1.465393,9.552294,2.269816,14.46,2.39q5.14,0,7.53-1.24c1.561019-.769228,2.504484-2.403513,2.39-4.14-.003101-1.338869-.641359-2.596832-1.72-3.39-1.779983-1.282229-3.711206-2.340203-5.75-3.15q-4-1.75-10.86-4.23c-4.415821-1.525886-8.591256-3.674214-12.4-6.38-2.889663-2.057607-5.245207-4.776597-6.87-7.93-1.538092-3.429034-2.273424-7.163836-2.15-10.92q0-10,6.41-15.61t19.24-7v-8.29h12.53v8.17c8.3733.529192,16.586753,2.53685,24.26,5.93l-7.2,17.25Q210.89,175,200.73,175q-4.84,0-6.81,1.18c-1.271476.68808-2.045567,2.034999-2,3.48-.03358,1.255027.485573,2.461509,1.42,3.3c1.495287,1.201391,3.155625,2.181428,4.93,2.91q3.51,1.6,9.74,3.72q12.65,4.48,18.15,10.2t5.51,14.73q0,10.17-6.44,16.52t-18.79,7.87v11.68h-12.49Z" fill="url(#eY7HBqiJTA46-fill)"/></g></svg>
